<svg width="25" height="36" viewBox="0 0 25 36" fill="none" xmlns="http://www.w3.org/2000/svg">
<path d="M12.5107 0C5.62014 0 0 5.59861 0 12.5107C0 14.8363 0.645993 17.1188 1.87338 19.0783L11.8001 35.0774C11.9939 35.3789 12.3169 35.5727 12.683 35.5727C13.0491 35.5727 13.3721 35.3789 13.5659 35.0559L23.2342 18.9061C24.397 16.9681 24.9999 14.7502 24.9999 12.5107C25.0215 5.59861 19.4229 0 12.5107 0ZM21.4685 17.8294L12.683 32.515L3.66063 17.9801C2.64857 16.3436 2.08871 14.4487 2.08871 12.5107C2.08871 6.7614 6.78293 2.08871 12.5107 2.08871C18.2601 2.08871 22.9328 6.78293 22.9328 12.5107C22.9543 14.3841 22.4375 16.2144 21.4685 17.8294Z" fill="black"/>
<path d="M12.5107 6.24463C9.06543 6.24463 6.26613 9.04393 6.26613 12.4892C6.26613 15.913 9.02237 18.7338 12.5107 18.7338C16.0422 18.7338 18.7553 15.8699 18.7553 12.4892C18.7769 9.04393 15.956 6.24463 12.5107 6.24463ZM12.5107 16.6667C10.2067 16.6667 8.33331 14.7933 8.33331 12.4892C8.33331 10.1852 10.2067 8.31181 12.5107 8.31181C14.8148 8.31181 16.6882 10.1852 16.6882 12.4892C16.6882 14.7717 14.8578 16.6667 12.5107 16.6667Z" fill="black"/>
</svg>
