<svg width="25" height="29" viewBox="0 0 25 29" fill="none" xmlns="http://www.w3.org/2000/svg">
<path d="M9.34615 14.077C11.0769 15.1732 13.1923 15.3078 15.1538 14.3847C15.5769 14.1924 15.75 13.6924 15.5577 13.2693C15.3654 12.8463 14.8654 12.6732 14.4423 12.8655C13 13.5193 11.4808 13.4424 10.2308 12.654C9.01923 11.8847 8.30769 10.577 8.30769 9.13473C8.30769 6.82704 10.1731 4.96165 12.4808 4.96165C14.7885 4.96165 16.6538 6.82704 16.6538 9.13473C16.6538 9.59627 16.2885 9.96165 15.8269 9.96165C15.4038 9.96165 15.0192 9.63473 15 9.13473C15 9.13473 15 9.13473 15 9.1155C15 7.73088 13.8846 6.6155 12.5 6.6155C11.1154 6.6155 10 7.73088 10 9.1155C10 10.5001 11.1154 11.6155 12.5 11.6155C13.1346 11.6155 13.7308 11.3655 14.1731 10.9809C14.6154 11.3847 15.1923 11.6155 15.8462 11.6155C17.2308 11.6155 18.3462 10.5001 18.3462 9.1155C18.3462 5.90396 15.7308 3.28857 12.5192 3.28857C9.30769 3.28857 6.69231 5.90396 6.69231 9.1155C6.65385 11.154 7.65384 13.0001 9.34615 14.077ZM12.4808 10.0001C12.0192 10.0001 11.6538 9.63473 11.6538 9.17319C11.6538 8.71165 12.0192 8.34627 12.4808 8.34627C12.9038 8.34627 13.2692 8.67319 13.3077 9.07703C13.2885 9.15396 13.2885 9.23088 13.3077 9.3078C13.25 9.69242 12.9038 10.0001 12.4808 10.0001Z" fill="black"/>
<path d="M25 10.9423C25 10.7308 24.9038 10.5192 24.75 10.3462L21.6538 7.25V0.826924C21.6538 0.365385 21.2885 0 20.8269 0H4.15385C3.69231 0 3.32692 0.365385 3.32692 0.826924V7.26923L0.230769 10.3654C0.0769225 10.5192 0 10.7308 0 10.9423V25.9423C0 27.3269 1.11538 28.4423 2.5 28.4423H22.5C23.8846 28.4423 25 27.3269 25 25.9423V10.9423ZM22.9808 10.9423L21.6538 12.2692V9.63461L22.9808 10.9423ZM20 1.65385V7.59616V13.9231L15.4808 18.4423H9.5L4.98077 13.9231V7.59616V1.65385H20ZM3.32692 12.2692L2 10.9423L3.32692 9.61539V12.2692ZM1.65385 25.5961V12.9423L7.98077 19.2692L1.65385 25.5961ZM2.82692 26.7885L9.5 20.1154H15.4808L22.1538 26.7885H2.82692ZM23.3269 25.5961L17 19.2692L23.3269 12.9423V25.5961Z" fill="black"/>
</svg>
