<svg width="25" height="25" viewBox="0 0 25 25" fill="none" xmlns="http://www.w3.org/2000/svg">
<path d="M24.3657 18.4449L21.2545 15.3298C20.4059 14.4803 19.0084 14.4803 18.1432 15.3298L16.729 16.7458C16.0802 17.3955 15.032 17.3955 14.3832 16.7458L8.26054 10.6155C7.61168 9.96585 7.61168 8.91638 8.26054 8.2667C8.49347 8.03349 9.14233 7.38381 9.67473 6.85074C10.5232 6.00117 10.5399 4.60187 9.67473 3.73563L6.56351 0.637181C5.715 -0.212394 4.31744 -0.212394 3.45229 0.637181C2.82006 1.2702 2.60378 1.4701 2.32094 1.75329C-0.773646 4.85174 -0.773646 9.88256 2.32094 12.9643L12.0206 22.6762C15.1152 25.7746 20.1231 25.7746 23.2177 22.6762L24.349 21.5434C25.2142 20.6938 25.2142 19.3112 24.3657 18.4449ZM20.2229 16.3793L23.3342 19.4944C23.617 19.7776 23.617 20.244 23.3342 20.5272L22.8184 21.0436L18.659 16.8957L19.1748 16.3793C19.4742 16.0961 19.9401 16.0961 20.2229 16.3793ZM5.53198 1.67L8.6432 4.76845C8.92604 5.05164 8.92604 5.51807 8.6432 5.80127L8.12744 6.31768L3.98469 2.16975L4.50046 1.65334C4.78329 1.38681 5.24915 1.38681 5.53198 1.67ZM13.0688 21.66L3.3691 11.9482C0.973297 9.54939 0.840197 5.80127 2.9698 3.25254L7.09591 7.38381C6.01447 8.61652 6.06438 10.4989 7.22901 11.665L13.3516 17.7953C14.5329 18.978 16.3963 19.0113 17.6275 17.9285L21.7536 22.0598C19.208 24.1754 15.4646 24.0588 13.0688 21.66Z" fill="black"/>
</svg>
