<svg width="18" height="18" viewBox="0 0 18 18" fill="none" xmlns="http://www.w3.org/2000/svg">
<path d="M9 18C13.9706 18 18 13.9706 18 9C18 4.02944 13.9706 0 9 0C4.02944 0 0 4.02944 0 9C0 13.9706 4.02944 18 9 18Z" fill="url(#paint0_linear_1_372)"/>
<path d="M6.09375 9.65926L7.16129 12.6139C7.16129 12.6139 7.29435 12.8891 7.43649 12.8891C7.57863 12.8891 9.70464 10.6784 9.70464 10.6784L12.0696 6.11188L6.13004 8.89716L6.09375 9.65926Z" fill="#C2DBEB"/>
<path d="M7.50907 10.4183L7.30343 12.5958C7.30343 12.5958 7.21875 13.2641 7.88407 12.5958C8.55242 11.9274 9.19052 11.4133 9.19052 11.4133L7.50907 10.4183Z" fill="#9EC7D9"/>
<path d="M6.1119 9.76511L3.91634 9.04838C3.91634 9.04838 3.65323 8.94253 3.73791 8.7006C3.75605 8.65221 3.78932 8.60987 3.89517 8.53427C4.38206 8.19556 12.9042 5.13205 12.9042 5.13205C12.9042 5.13205 13.1462 5.0504 13.2883 5.10483C13.3518 5.12903 13.3942 5.15624 13.4304 5.25907C13.4425 5.29536 13.4516 5.37399 13.4486 5.45262C13.4486 5.51007 13.4395 5.56149 13.4365 5.64314C13.3851 6.48084 11.8307 12.7318 11.8307 12.7318C11.8307 12.7318 11.7369 13.0978 11.4042 13.1099C11.2833 13.1159 11.1351 13.0887 10.9597 12.9375C10.3065 12.375 8.04738 10.8568 7.54839 10.5242C7.52117 10.506 7.5121 10.4818 7.50605 10.4577C7.5 10.4214 7.53629 10.379 7.53629 10.379C7.53629 10.379 11.4677 6.88306 11.5736 6.51713C11.5827 6.48991 11.5524 6.47479 11.5101 6.48689C11.25 6.58366 6.71976 9.44153 6.22077 9.75907C6.19355 9.77721 6.1119 9.76511 6.1119 9.76511Z" fill="white"/>
<defs>
<linearGradient id="paint0_linear_1_372" x1="9.00114" y1="18.0023" x2="9.00114" y2="0" gradientUnits="userSpaceOnUse">
<stop stop-color="#0094D6"/>
<stop offset="1" stop-color="#00ACE0"/>
</linearGradient>
</defs>
</svg>
