<?xml version="1.0" encoding="utf-8"?>
<!-- Generator: Adobe Illustrator 25.4.1, SVG Export Plug-In . SVG Version: 6.00 Build 0)  -->
<svg version="1.1" id="Layer_1" xmlns="http://www.w3.org/2000/svg" xmlns:xlink="http://www.w3.org/1999/xlink" x="0px" y="0px"
	 viewBox="0 0 64 64" style="enable-background:new 0 0 64 64;" xml:space="preserve">
<style type="text/css">
	.st0{fill-rule:evenodd;clip-rule:evenodd;fill:#F9A400;}
</style>
<path class="st0" d="M32,64c17.7,0,32-14.3,32-32S49.7,0,32,0S0,14.3,0,32S14.3,64,32,64z M35.4,19.9c-0.7-0.7-1.7-1.1-2.7-1.1
	c-1,0-2,0.4-2.7,1.1c-0.7,0.7-1.1,1.7-1.1,2.7c0,1,0.4,2,1.1,2.7c0.7,0.7,1.7,1.1,2.7,1.1c1,0,2-0.4,2.7-1.1
	c0.7-0.7,1.1-1.7,1.1-2.7C36.6,21.6,36.2,20.6,35.4,19.9z M42,22.6c0,5.1-4.1,9.3-9.3,9.3c-5.1,0-9.3-4.2-9.3-9.3s4.2-9.3,9.3-9.3
	C37.8,13.4,42,17.5,42,22.6z M41.8,37.2c-1.7,1-3.5,1.8-5.4,2.2l0,0l5.2,5.2c0.3,0.3,0.5,0.6,0.6,0.9c0.1,0.3,0.2,0.7,0.2,1
	c0,0.4-0.1,0.7-0.2,1s-0.3,0.6-0.6,0.9c-0.3,0.3-0.6,0.5-0.9,0.6c-0.3,0.1-0.7,0.2-1,0.2c-0.4,0-0.7-0.1-1-0.2
	c-0.3-0.1-0.6-0.3-0.9-0.6l-5.1-5.1l-5.1,5.1c-0.5,0.5-1.2,0.8-1.9,0.8c-0.7,0-1.4-0.3-1.9-0.8c-0.5-0.5-0.8-1.2-0.8-1.9
	c0-0.7,0.3-1.4,0.8-1.9l5.2-5.2c-1.9-0.4-3.7-1.2-5.4-2.2c-0.3-0.2-0.6-0.4-0.8-0.7c-0.2-0.3-0.4-0.6-0.4-1c-0.1-0.3-0.1-0.7,0-1.1
	c0.1-0.4,0.2-0.7,0.4-1c0.2-0.3,0.4-0.6,0.7-0.8c0.3-0.2,0.6-0.4,1-0.4c0.3-0.1,0.7-0.1,1.1,0c0.4,0.1,0.7,0.2,1,0.4
	c1.9,1.2,4,1.8,6.2,1.8c2.2,0,4.4-0.6,6.2-1.8c0.3-0.2,0.6-0.3,1-0.4c0.4-0.1,0.7-0.1,1.1,0c0.3,0.1,0.7,0.2,1,0.4
	c0.3,0.2,0.5,0.5,0.7,0.8c0.2,0.3,0.3,0.6,0.4,1c0.1,0.4,0.1,0.7,0,1.1c-0.1,0.3-0.2,0.7-0.4,1C42.4,36.8,42.1,37,41.8,37.2z"/>
</svg>
