<svg width="18" height="18" viewBox="0 0 18 18" fill="none" xmlns="http://www.w3.org/2000/svg">
<path d="M9 18C13.9706 18 18 13.9706 18 9C18 4.02944 13.9706 0 9 0C4.02944 0 0 4.02944 0 9C0 13.9706 4.02944 18 9 18Z" fill="#D02128"/>
<path d="M6.10367 5.75378C6.29805 5.55292 6.56371 5.44277 6.84233 5.44925C7.08855 5.45572 7.32181 5.55292 7.49676 5.72138L7.91145 6.11663C8.10583 6.29806 8.2095 6.54428 8.21598 6.80994C8.22246 7.0756 8.12527 7.32181 7.94384 7.5162L7.68466 7.78834C7.56155 7.91793 7.40605 8.01512 7.2311 8.06048L7.15335 8.07991C7.10151 8.09287 7.06263 8.12527 7.04319 8.17063C7.02375 8.21598 7.02375 8.26782 7.04319 8.31318L7.07559 8.38445C7.60691 9.51836 8.53347 10.4125 9.68682 10.905L9.75162 10.9309C9.79697 10.9503 9.84233 10.9503 9.88769 10.9309C9.93304 10.9114 9.96544 10.8791 9.9784 10.8337L10.0043 10.7689C10.0497 10.6393 10.1209 10.5227 10.2181 10.4255L10.4773 10.1533C10.6717 9.95249 10.9374 9.84233 11.216 9.84881C11.4622 9.85529 11.6955 9.95249 11.8704 10.121L12.2851 10.5162C12.6803 10.892 12.6933 11.5205 12.3175 11.9158L12.0583 12.1879C11.987 12.2657 11.9028 12.324 11.8056 12.3758C11.5594 12.5184 11.2419 12.5767 10.9114 12.5378C8.13175 12.2203 5.87041 10.0691 5.41684 7.30886C5.31965 6.73218 5.53995 6.31102 5.7149 6.17495C5.72138 6.16847 5.72786 6.16847 5.72786 6.16199L5.74082 6.14903C5.7473 6.14255 5.75378 6.13607 5.75378 6.12959C5.7797 6.09719 5.80561 6.0648 5.83801 6.0324L6.10367 5.75378Z" fill="white"/>
</svg>
