<svg width="17" height="17" viewBox="0 0 17 17" fill="none" xmlns="http://www.w3.org/2000/svg">
<path fill-rule="evenodd" clip-rule="evenodd" d="M6.5 12.5C9.81371 12.5 12.5 9.81371 12.5 6.5C12.5 3.18629 9.81371 0.5 6.5 0.5C3.18629 0.5 0.5 3.18629 0.5 6.5C0.5 9.81371 3.18629 12.5 6.5 12.5ZM6.5 13C10.0899 13 13 10.0899 13 6.5C13 2.91015 10.0899 0 6.5 0C2.91015 0 0 2.91015 0 6.5C0 10.0899 2.91015 13 6.5 13Z" fill="#D02128"/>
<path fill-rule="evenodd" clip-rule="evenodd" d="M16 16L11 11L11.3535 10.6465L16.3535 15.6465C16.4511 15.7441 16.4511 15.9024 16.3535 16C16.2559 16.0977 16.0976 16.0977 16 16Z" fill="#D02128"/>
</svg>
