<svg width="18" height="18" viewBox="0 0 18 18" fill="none" xmlns="http://www.w3.org/2000/svg">
<path d="M9 18C13.9706 18 18 13.9706 18 9C18 4.02944 13.9706 0 9 0C4.02944 0 0 4.02944 0 9C0 13.9706 4.02944 18 9 18Z" fill="url(#paint0_linear_1_365)"/>
<path fill-rule="evenodd" clip-rule="evenodd" d="M13.3306 4.78124C12.254 3.7016 10.8175 3.10886 9.29032 3.10583C6.14214 3.10583 3.58064 5.66733 3.58064 8.81249C3.58064 9.81954 3.84375 10.7994 4.34274 11.6673L3.53226 14.625L6.55947 13.8326C7.39415 14.2863 8.33165 14.5282 9.2873 14.5282H9.29032C12.4385 14.5282 15 11.9667 15 8.81854C15.003 7.29434 14.4103 5.86088 13.3306 4.78124ZM9.29335 13.5635C8.44052 13.5635 7.60585 13.3337 6.87701 12.9012L6.70464 12.7984L4.90827 13.2701L5.38306 11.5222L5.27117 11.3437C4.79637 10.5877 4.54536 9.71672 4.54536 8.81854C4.54536 6.20261 6.67439 4.07358 9.29335 4.07358C10.5605 4.07358 11.752 4.56954 12.6472 5.46471C13.5423 6.36289 14.0353 7.55442 14.0353 8.82156C14.0353 11.4375 11.9062 13.5635 9.29335 13.5635ZM11.8942 10.0101C11.752 9.93749 11.0504 9.59273 10.9204 9.54737C10.7903 9.49898 10.6935 9.47479 10.5998 9.61995C10.506 9.76208 10.2308 10.0826 10.1492 10.1794C10.0645 10.2732 9.98286 10.2853 9.84072 10.2157C9.69859 10.1431 9.23891 9.99495 8.69456 9.50805C8.27117 9.13003 7.98387 8.66128 7.90222 8.51914C7.82056 8.377 7.89314 8.29838 7.96572 8.22882C8.02923 8.16531 8.10786 8.06249 8.18044 7.97781C8.25302 7.89313 8.27419 7.83567 8.32258 7.7389C8.37097 7.64515 8.34677 7.56047 8.31048 7.48789C8.27419 7.41531 7.98992 6.7137 7.87197 6.42942C7.75706 6.1512 7.63911 6.18749 7.55141 6.18446C7.46976 6.18144 7.37298 6.17842 7.27923 6.17842C7.18548 6.17842 7.02822 6.21471 6.89818 6.35684C6.76814 6.49898 6.39919 6.84374 6.39919 7.54535C6.39919 8.24696 6.91028 8.92438 6.98286 9.02116C7.05544 9.11491 7.98992 10.5574 9.42036 11.1744C9.7621 11.3226 10.0252 11.4103 10.2339 11.4738C10.5756 11.5826 10.8871 11.5675 11.1321 11.5312C11.4073 11.4889 11.9758 11.1865 12.0937 10.8538C12.2117 10.5212 12.2117 10.2339 12.1784 10.1764C12.1331 10.1189 12.0363 10.0826 11.8942 10.0101Z" fill="white"/>
<defs>
<linearGradient id="paint0_linear_1_365" x1="9.00114" y1="16.6944" x2="9.00114" y2="-1.30787" gradientUnits="userSpaceOnUse">
<stop stop-color="#55B046"/>
<stop offset="1" stop-color="#83BF67"/>
</linearGradient>
</defs>
</svg>
